<?xml version="1.0" standalone="no"?>
<!DOCTYPE svg PUBLIC "-//W3C//DTD SVG 1.1//EN" "http://www.w3.org/Graphics/SVG/1.1/DTD/svg11.dtd" >
<svg xmlns="http://www.w3.org/2000/svg">
<metadata>
This is a custom SVG webfont generated by Font Squirrel.
Copyright   :  1987 1991 1993 2002 Adobe Systems Incorporated All rights reserved
Designer    : Paul Renner
Foundry URL : httpwwwadobecomtype
</metadata>
<defs>
<font id="FuturaStdBookOblique" horiz-adv-x="1261" >
<font-face units-per-em="2048" ascent="1690" descent="-358" />
<missing-glyph horiz-adv-x="630" />
<glyph unicode=" "  horiz-adv-x="630" />
<glyph unicode="&#x09;" horiz-adv-x="630" />
<glyph unicode="&#xa0;" horiz-adv-x="630" />
<glyph unicode="!" horiz-adv-x="692" d="M246 90q8 47 47 80t86 33t75.5 -33t20.5 -80t-47 -82t-86 -35t-75.5 35t-20.5 82zM311 313l195 1231h168l-195 -1231h-168z" />
<glyph unicode="&#x22;" horiz-adv-x="935" d="M383 872l70 672h192l-143 -672h-119zM709 872l69 672h193l-144 -672h-118z" />
<glyph unicode="#" d="M162 457l26 159h236l115 351h-220l25 159h244l139 418h158l-140 -418h254l138 418h161l-137 -418h189l-25 -159h-215l-115 -351h207l-26 -159h-236l-154 -457h-155l151 457h-252l-157 -457h-154l152 457h-209zM584 616h252l114 351h-252z" />
<glyph unicode="$" d="M211 375l174 47q-4 -109 61.5 -190.5t169.5 -90.5l99 625q-160 72 -241 162t-56 243q25 156 143.5 260.5t280.5 127.5l32 210h136l-33 -210q100 -14 177 -78t108 -156l-148 -88q-59 137 -164 158l-80 -506q170 -78 254 -173t58 -263q-27 -170 -155 -299t-300 -164 l-35 -226h-135l33 213q-164 8 -269.5 121t-109.5 277zM588 1165q-20 -129 155 -217l72 449q-84 -14 -148.5 -81t-78.5 -151zM754 156q100 33 169.5 111.5t86.5 181.5q25 158 -170 256z" />
<glyph unicode="%" horiz-adv-x="1632" d="M260 1233q23 141 139.5 239.5t257.5 98.5q143 0 228.5 -98.5t62.5 -239.5q-20 -139 -138 -237.5t-259 -98.5t-226 97.5t-65 238.5zM328 27l1142 1544l76 -49l-1138 -1549zM391 1233q-12 -84 42 -144.5t140 -60.5t159 60.5t85 144.5q14 86 -40 146.5t-140 60.5t-159 -60.5 t-87 -146.5zM929.5 309.5q22.5 141.5 139.5 239.5t258 98q143 0 228 -98t62.5 -239.5t-139 -239t-258 -97.5t-227.5 97.5t-63.5 239zM1061 309q-14 -84 40 -144.5t140 -60.5t159 60.5t87 144.5q14 86 -40 146.5t-140 60.5t-159 -60.5t-87 -146.5z" />
<glyph unicode="&#x26;" horiz-adv-x="1423" d="M143 395q10 63 32 117.5t59.5 102t71.5 83t93.5 76.5t96 64.5t106.5 64.5l21 12q-2 2 -16.5 29t-17.5 31t-16.5 28.5t-16.5 32.5t-13.5 31t-12.5 34t-7 32.5t-6 37t0 35t3 37.5q23 145 133.5 236.5t255.5 91.5q135 0 218 -86t63 -217q-8 -53 -34 -102.5t-51.5 -82 t-77.5 -75.5t-78.5 -62.5t-92.5 -62.5l260 -416l207 203l109 -103l-234 -229l209 -338h-217l-131 217q-313 -244 -533 -244q-182 0 -297 121t-86 301zM313 408q-18 -109 50.5 -194t177.5 -85q72 0 159.5 40t135 72.5t141.5 104.5l-275 442l-81 -49q-68 -41 -103 -65.5 t-87 -68.5t-81 -93t-37 -104zM685 1210.5q-3 -10.5 9.5 -40t15.5 -38t19 -37t21 -36.5l28 -51l17 10q10 6 49 31.5t52 36t43 36t42 43t26.5 46t18.5 57.5q10 70 -32 113.5t-111 43.5q-72 0 -128.5 -49t-68.5 -121q2 -34 -1 -44.5z" />
<glyph unicode="'" horiz-adv-x="591" d="M375 872l69 672h193l-143 -672h-119z" />
<glyph unicode="(" horiz-adv-x="587" d="M279 561q106 659 354 1053l133 -70q-233 -440 -320 -983q-86 -549 9 -983l-156 -70q-122 396 -20 1053z" />
<glyph unicode=")" horiz-adv-x="587" d="M-2 -422q231 432 319 983q88 555 -8 983l158 70q123 -399 18 -1053q-100 -655 -352 -1053z" />
<glyph unicode="*" horiz-adv-x="1212" d="M416 1210l71 148l254 -101l33 287h154l-58 -287l287 101l27 -148l-291 -77l141 -226l-139 -92l-121 242l-199 -242l-110 92l217 226z" />
<glyph unicode="+" d="M205 444l26 160h416l66 416h159l-65 -416h416l-27 -160h-416l-65 -415h-160l66 415h-416z" />
<glyph unicode="," horiz-adv-x="630" d="M70 -307l274 532l143 -53l-313 -524z" />
<glyph unicode="-" horiz-adv-x="425" d="M70 418l24 151h420l-25 -151h-419z" />
<glyph unicode="." horiz-adv-x="630" d="M215 90q8 47 47 80t86 33t76 -33t20.5 -80t-47.5 -82t-86 -35t-75.5 35t-20.5 82z" />
<glyph unicode="/" horiz-adv-x="1167" d="M-4 -260l1268 1950l125 -62l-1270 -1950z" />
<glyph unicode="0" d="M201 770q16 98 52 204.5t96.5 214t135 191.5t178 137.5t216 53.5t199.5 -53.5t134.5 -137.5t78 -190.5t28.5 -214t-12 -205.5q-31 -197 -123 -376t-240.5 -300t-316.5 -121t-278.5 121t-144.5 300t-3 376zM360.5 613q-4.5 -81 13 -166t47.5 -154.5t89 -114.5t141 -45 q100 0 188.5 66.5t145.5 169t94 202t54 191.5q20 82 13 193.5t-28.5 213t-91.5 172t-172 70.5t-192.5 -69.5t-147.5 -175t-94 -210t-49 -194.5q-6 -68 -10.5 -149z" />
<glyph unicode="1" d="M543 1384l114 160h338l-243 -1544h-172l219 1384h-256z" />
<glyph unicode="2" d="M84 0l858 854q123 123 145 258q20 127 -56.5 213t-203.5 86q-137 0 -236 -90t-124 -227h-172q35 205 191.5 341t359.5 136q199 0 321.5 -130t92.5 -327q-29 -188 -168 -326l-635 -628h651l-25 -160h-999z" />
<glyph unicode="3" d="M180 401h168q-12 -117 61.5 -192.5t192.5 -75.5q127 0 228.5 90t121.5 219q23 143 -56 218t-224 71l24 160q307 12 344 250q20 123 -43 196.5t-184 73.5q-113 0 -188.5 -67.5t-104.5 -180.5h-170q49 188 177 298t315 110q188 0 294.5 -117t77.5 -305 q-16 -104 -84.5 -197.5t-166.5 -140.5q100 -49 140 -152.5t19 -226.5q-31 -199 -190.5 -329t-360.5 -130q-190 0 -304 119t-87 309z" />
<glyph unicode="4" d="M51 250l1178 1380h4l-193 -1220h191l-27 -160h-190l-39 -250h-172l39 250h-791zM379 410h489l111 698h-4z" />
<glyph unicode="5" d="M82 250l154 98q39 -96 119.5 -155.5t187.5 -59.5q170 0 297 112.5t155 282.5q27 162 -67 268.5t-258 106.5q-141 0 -310 -98l340 739h615l-25 -160h-493l-152 -329l92 8q225 0 346 -155.5t84 -383.5q-39 -238 -227 -394.5t-428 -156.5q-152 0 -262.5 73t-167.5 204z" />
<glyph unicode="6" d="M170 502q29 174 199 370l622 699l115 -96l-432 -480l4 -4q18 8 67 17q33 6 70 6q209 0 332 -149.5t88 -360.5q-35 -221 -216 -376t-400.5 -155t-351.5 156t-97 373zM340 498q-23 -152 65.5 -258.5t238 -106.5t272 106.5t145.5 258.5q25 150 -64.5 253t-238.5 103 q-152 0 -272.5 -103t-145.5 -253z" />
<glyph unicode="7" d="M80 53l1087 1331h-843l24 160h1139l-1284 -1571z" />
<glyph unicode="8" d="M227 432q20 121 96 222.5t191 148.5q-80 49 -116 141t-19 197q29 184 173 307t326.5 123t288 -123t76.5 -307q-16 -102 -80.5 -195.5t-161.5 -142.5q100 -49 144.5 -149.5t23.5 -221.5q-31 -199 -186.5 -329t-356 -130t-315.5 130t-84 329zM399 430q-18 -123 54.5 -210 t197.5 -87t226.5 87t119.5 210q20 123 -53.5 210t-198 87t-225.5 -87t-121 -210zM545 1145q-18 -113 48 -192t177 -79t202 79t109 192q16 111 -50 188.5t-177 77.5t-202 -77.5t-107 -188.5z" />
<glyph unicode="9" d="M258 1044q33 219 214 373t400.5 154t351.5 -153.5t99 -373.5q-29 -174 -203 -370l-622 -701l-115 88l434 490l-4 4q-72 -20 -137 -20q-211 0 -332 149t-86 360zM430 1051q-23 -150 65.5 -253.5t239.5 -103.5q150 0 271.5 103.5t144.5 253.5q25 150 -64.5 255t-239 105 t-271 -105t-146.5 -255z" />
<glyph unicode=":" horiz-adv-x="630" d="M215 90q8 47 47 80t86 33t76 -33t20.5 -80t-47.5 -82t-86 -35t-75.5 35t-20.5 82zM340 876.5q8 47.5 47 80t86 32.5t76 -32.5t20.5 -80t-47.5 -82t-86 -34.5t-75.5 34.5t-20.5 82z" />
<glyph unicode=";" horiz-adv-x="630" d="M74 -307l274 532l144 -53l-314 -524zM391 876.5q8 47.5 47 80t86 32.5t76 -32.5t20.5 -80t-47 -82t-86 -34.5t-76 34.5t-20.5 82z" />
<glyph unicode="&#x3c;" d="M207 453l22 143l1059 424l-28 -174l-803 -322l702 -321l-29 -174z" />
<glyph unicode="=" d="M180 285l25 159h991l-25 -159h-991zM231 604l25 160h991l-24 -160h-992z" />
<glyph unicode="&#x3e;" d="M139 29l29 174l805 321l-705 322l29 174l924 -424l-23 -143z" />
<glyph unicode="?" horiz-adv-x="999" d="M266 651q20 127 105.5 199t226.5 115q4 2 40 12t42 12l37 12q31 10 38 15.5t31.5 18t32.5 22.5t24.5 26.5t23.5 33t15.5 38t12.5 45.5q14 94 -36 153.5t-142 59.5q-86 0 -152.5 -58.5t-79.5 -144.5q-8 -41 -4 -98h-170l8 109q25 156 151 253t282 97q158 0 246.5 -106.5 t64.5 -262.5q-29 -174 -154 -274q-74 -57 -291 -119q-166 -45 -186 -170q-10 -70 32 -117t111 -47q82 0 132.5 56.5t64.5 140.5h166q-18 -150 -130 -252.5t-259 -102.5q-143 0 -224.5 96.5t-58.5 237.5zM395 90q8 47 47 80t86 33t76 -33t20.5 -80t-47 -82t-86 -35t-76 35 t-20.5 82z" />
<glyph unicode="@" horiz-adv-x="1638" d="M197 772q53 340 316 569.5t591 229.5q285 0 455 -176q197 -197 155 -469q-43 -266 -196 -430q-84 -92 -174.5 -136.5t-167.5 -40.5q-92 4 -93 125q-143 -125 -297 -125q-137 0 -223 111t-61 264q31 193 170 338.5t323 145.5q162 0 250 -144l49 125h146l-187 -522 q-47 -131 -28 -160q8 -14 30 -14q74 0 171.5 125t127.5 266q57 262 -82 415.5t-397 153.5q-272 0 -479 -185t-252 -466q-47 -289 115 -470t444 -181q260 0 408 94l127 -104q-289 -137 -574 -138q-334 0 -528 228.5t-139 570.5zM647 709q-18 -109 30 -177.5t152 -68.5 q125 0 206 86t116 213q35 123 -12 199.5t-154 76.5q-119 0 -219.5 -102t-118.5 -227z" />
<glyph unicode="A" horiz-adv-x="1431" d="M12 0l969 1618l438 -1618h-190l-113 438h-659l-256 -438h-189zM551 598h522l-160 619z" />
<glyph unicode="B" horiz-adv-x="1163" d="M156 0l243 1544h254q111 0 197 -21.5t152.5 -68.5t93.5 -130q16 -49 15 -109q0 -42 -7 -89q-33 -201 -199 -301q129 -33 191 -143q45 -81 45 -178q0 -36 -6 -74q-23 -147 -115 -246.5t-219 -141.5t-287 -42h-358zM352 160h172q395 0 441 282q4 26 3 49q0 40 -11 72 q-17 51 -52 80t-91 46.5t-108.5 22.5t-115.5 5h-150zM465 864h65q68 0 114 4t99.5 19.5t88 43t62.5 77t38 118.5q6 38 6 70q0 102 -60 139q-79 49 -264 49h-67z" />
<glyph unicode="C" horiz-adv-x="1468" d="M188 766q35 217 172.5 402.5t340 294t419.5 108.5q260 0 439 -152l-35 -213q-166 205 -439 205q-256 0 -469 -190.5t-254 -448.5q-9 -54 -8 -106q0 -192 121 -342q154 -190 412 -191q264 0 499 205l-32 -213q-236 -152 -486 -152q-330 0 -530 233q-160 185 -160 431 q0 62 10 129z" />
<glyph unicode="D" horiz-adv-x="1388" d="M156 0l243 1544h291q193 0 328 -39t246 -147q175 -175 175 -445q0 -68 -12 -143q-57 -352 -344 -575q-147 -115 -293.5 -155t-347.5 -40h-286zM352 160h125q158 0 279 33.5t235 125.5q219 178 264 453q9 58 9 111q0 211 -136 352q-86 88 -194.5 118.5t-261.5 30.5h-125z " />
<glyph unicode="E" horiz-adv-x="1093" d="M156 0l243 1544h801l-24 -160h-629l-72 -458h610l-26 -160h-610l-97 -606h629l-25 -160h-800z" />
<glyph unicode="F" horiz-adv-x="978" d="M156 0l243 1544h703l-25 -160h-530l-72 -458h514l-26 -160h-514l-121 -766h-172z" />
<glyph unicode="G" horiz-adv-x="1679" d="M186 768q53 332 325.5 567.5t606.5 235.5q397 0 602 -334l-143 -117q-160 291 -485 291q-262 0 -477.5 -190.5t-256.5 -454.5q-8 -52 -8 -101q0 -190 121 -335q74 -88 181.5 -142.5t224.5 -54.5q211 0 403.5 138.5t224.5 344.5h-458l24 160h643q-25 -176 -77 -303 t-169 -242q-125 -123 -287.5 -190.5t-324.5 -67.5q-326 0 -523 235q-157 186 -157 430q-1 63 10 130z" />
<glyph unicode="H" horiz-adv-x="1462" d="M164 0l244 1544h172l-99 -626h791l98 626h172l-244 -1544h-172l121 758h-790l-121 -758h-172z" />
<glyph unicode="I" horiz-adv-x="489" d="M160 0l243 1544h172l-243 -1544h-172z" />
<glyph unicode="J" horiz-adv-x="643" d="M-141 -45l116 133q41 -45 77 -66.5t91 -21.5q47 0 85 23.5t59.5 53t38 81t22.5 83t14 81.5l193 1222h172l-192 -1222q-14 -84 -23.5 -128t-39.5 -112t-73 -115q-115 -127 -284 -127q-141 0 -256 115z" />
<glyph unicode="K" horiz-adv-x="1251" d="M156 0l243 1544h172l-104 -661l762 661h231l-837 -719l618 -825h-237l-521 709l-51 -43l-104 -666h-172z" />
<glyph unicode="L" horiz-adv-x="768" d="M156 0l243 1544h172l-219 -1384h426l-24 -160h-598z" />
<glyph unicode="M" horiz-adv-x="1835" d="M43 0l571 1632l357 -1296l768 1296l55 -1632h-176l-33 1044h-4l-674 -1107l-319 1107h-4l-365 -1044h-176z" />
<glyph unicode="N" horiz-adv-x="1708" d="M166 0l254 1610l1005 -1262l189 1196h172l-254 -1614l-1006 1260l-188 -1190h-172z" />
<glyph unicode="O" horiz-adv-x="1765" d="M201 770q35 217 172 401.5t338.5 292t418.5 107.5q332 0 532 -235q159 -187 159 -435q0 -64 -11 -131q-53 -332 -326.5 -564.5t-605 -232.5t-531.5 233q-158 184 -158 429q1 65 12 135zM373 772q-9 -55 -9 -106q0 -195 122 -344q155 -188 417 -188.5t478 188t257 450.5 q9 55 9 107q0 196 -122 345q-155 187 -419 187t-478 -187.5t-255 -451.5z" />
<glyph unicode="P" horiz-adv-x="1030" d="M156 0l243 1544h254q84 0 136.5 -4t120 -22.5t114.5 -55.5q74 -57 104 -151q20 -61 20 -128q0 -36 -5 -73q-35 -209 -201 -332q-139 -102 -383 -102h-125l-106 -676h-172zM461 836h114q352 0 396 278q5 32 5 59q0 37 -9 66q-16 51 -46 79t-86.5 43t-104.5 19t-120 4h-63z " />
<glyph unicode="Q" horiz-adv-x="1765" d="M201 770q35 217 172 401.5t338.5 292t418.5 107.5q334 0 533 -237q157 -187 157 -432q0 -66 -12 -136q-47 -303 -309 -545l195 -235h-219l-107 139q-106 -72 -238.5 -112t-250.5 -40q-332 0 -532 233q-158 184 -158 429q1 65 12 135zM373 772q-9 -55 -9 -106 q0 -195 122 -344q155 -188 417 -189q195 0 363 115l-314 375h226l223 -279q199 180 237 428q9 55 9 107q0 196 -122 345q-155 187 -419 187t-478 -187.5t-255 -451.5z" />
<glyph unicode="R" horiz-adv-x="1110" d="M156 0l243 1544h224q119 0 210 -18.5t167.5 -63.5t108.5 -132q19 -53 19 -120q0 -43 -8 -92q-29 -178 -150.5 -294.5t-301.5 -131.5l381 -692h-211l-361 678h-43l-106 -678h-172zM459 829h53q82 0 146.5 10.5t129 38t105.5 85t55 143.5q6 37 6 68q0 47 -13 82 q-22 58 -78 85t-115.5 35t-149.5 8h-51z" />
<glyph unicode="S" horiz-adv-x="1144" d="M141 373l174 47q-2 -123 71 -205t194 -82q127 0 236.5 87t129.5 214q3 22 4 42q0 28 -7 53q-11 44 -27.5 71t-59.5 57.5t-66.5 43t-80.5 40.5l-86 41q-74 35 -121 67t-91 78t-60 108q-9 35 -8 75q0 32 5 68q29 174 172.5 283.5t321.5 109.5q129 0 224 -62.5t138 -177.5 l-151 -88q-37 84 -91.5 126t-148.5 42q-104 0 -190 -67.5t-103 -172.5q-3 -17 -3 -33q0 -28 9 -53q14 -39 53 -69.5t66 -46t78 -39.5l94 -45q82 -39 134.5 -73t100.5 -84t65 -120q10 -38 10 -82q0 -36 -7 -75q-33 -201 -195.5 -339.5t-365.5 -138.5q-184 0 -297 110 t-121 290z" />
<glyph unicode="T" horiz-adv-x="962" d="M240 1384l24 160h922l-25 -160h-377l-219 -1384h-172l219 1384h-372z" />
<glyph unicode="U" horiz-adv-x="1402" d="M229 336q-5 39 -4 79q0 80 19 163l151 966h172l-145 -919q-14 -86 -19 -125q-2 -17 -1 -41q0 -29 2 -66q5 -68 32 -112q37 -68 118 -108t169 -40q84 0 173 37t153 100q43 43 70.5 106.5t35.5 102.5t21 121q2 16 4 25l145 919h172l-151 -966q-23 -145 -64 -242.5 t-139 -185.5q-193 -176 -445 -177q-240 0 -374 158q-81 88 -95 205z" />
<glyph unicode="V" horiz-adv-x="1277" d="M256 1544h186l254 -1177l627 1177h186l-884 -1636z" />
<glyph unicode="W" horiz-adv-x="2234" d="M270 1544h187l223 -1157l696 1237l303 -1237l588 1157h187l-848 -1624l-303 1243l-697 -1243z" />
<glyph unicode="X" horiz-adv-x="1155" d="M27 0l583 799l-301 745h197l223 -581l408 581h196l-534 -745l329 -799h-196l-254 635l-455 -635h-196z" />
<glyph unicode="Y" horiz-adv-x="1214" d="M260 1544h199l284 -688l502 688h199l-645 -880l-105 -664h-172l105 664z" />
<glyph unicode="Z" horiz-adv-x="1200" d="M29 0l1061 1384h-736l25 160h1022l-1063 -1384h821l-24 -160h-1106z" />
<glyph unicode="[" horiz-adv-x="645" d="M135 -492l334 2106h389l-24 -152h-222l-284 -1802h221l-25 -152h-389z" />
<glyph unicode="\" horiz-adv-x="1167" d="M295 1628l145 62l690 -1690l-143 -61z" />
<glyph unicode="]" horiz-adv-x="645" d="M-35 -492l25 152h221l285 1802h-222l25 152h389l-334 -2106h-389z" />
<glyph unicode="^" d="M240 659l561 885h147l283 -885h-182l-207 672l-424 -672h-178z" />
<glyph unicode="_" horiz-adv-x="1024" d="M-41 -256l16 102h1024l-16 -102h-1024z" />
<glyph unicode="`" horiz-adv-x="733" d="M389 1446l184 78l191 -336l-113 -58z" />
<glyph unicode="a" horiz-adv-x="1181" d="M150 479q33 213 183 361.5t361 148.5q201 0 303 -164h4l21 138h164l-152 -963h-164l21 133h-4q-150 -160 -357 -160q-205 0 -309 150q-80 114 -79 261q0 46 8 95zM319 492q-7 -40 -6 -77q0 -102 49 -182q68 -109 216 -108q152 0 253 105.5t125 258.5q6 38 7 73 q0 102 -55 176q-73 99 -220 100q-139 0 -242.5 -102.5t-126.5 -243.5z" />
<glyph unicode="b" horiz-adv-x="1181" d="M147 0l269 1690h164l-138 -865h4q152 164 357 164q209 0 311 -147q78 -112 78 -261q0 -48 -8 -100q-33 -209 -184.5 -358.5t-356.5 -149.5q-213 0 -307 160h-4l-21 -133h-164zM381 492q-7 -40 -7 -77q0 -102 50 -182q68 -109 215 -108q152 0 253 105.5t126 258.5 q6 38 6 73q0 102 -54 176q-73 99 -220 100q-139 0 -242.5 -102.5t-126.5 -243.5z" />
<glyph unicode="c" horiz-adv-x="974" d="M135 481q33 213 208 360.5t388 147.5q162 0 281 -96l-35 -217h-4q-100 162 -273 162q-147 0 -260.5 -104.5t-136.5 -252.5q-6 -36 -6 -69q0 -104 58 -183q77 -104 225 -104q184 0 338 166h4l-33 -219q-162 -98 -322 -99q-219 0 -342 146q-97 115 -97 274q0 42 7 88z" />
<glyph unicode="d" horiz-adv-x="1181" d="M150 479q33 213 183 361.5t361 148.5q96 0 176 -43t127 -121h4l138 865h164l-269 -1690h-164l21 133h-4q-147 -160 -357 -160q-205 0 -309 150q-80 114 -79 261q0 46 8 95zM319 492q-7 -40 -6 -77q0 -102 49 -182q68 -109 216 -108q152 0 253 105.5t125 258.5q6 38 7 73 q0 102 -55 176q-73 99 -220 100q-139 0 -242.5 -102.5t-126.5 -243.5z" />
<glyph unicode="e" horiz-adv-x="1062" d="M143 469q35 223 183.5 371.5t367.5 148.5q223 0 322 -159q66 -106 65 -241q0 -68 -16 -143h-756q-4 -29 -4 -56q0 -99 57 -172q74 -93 211 -93q182 0 324 199l127 -80q-186 -270 -487 -271q-211 0 -319 142q-82 108 -82 258q-1 46 7 96zM338 586h575q0 106 -67.5 179 t-174 73t-203.5 -74t-130 -178z" />
<glyph unicode="f" horiz-adv-x="561" d="M170 0l129 811h-90l22 152h91l61 383q27 178 82 249q94 121 268 121q51 0 113 -20l-27 -166q-63 23 -106 22q-39 0 -67 -13t-44 -29.5t-29.5 -57.5t-18.5 -69.5t-15 -94.5l-54 -325h244l-22 -152h-244l-129 -811h-164z" />
<glyph unicode="g" horiz-adv-x="1187" d="M66 -94h163q-4 -28 -4 -55q0 -94 58 -156q74 -80 206 -80q176 0 260.5 108.5t112.5 294.5l19 115h-4q-70 -74 -165.5 -117t-193.5 -43q-205 0 -308 148q-79 112 -79 259q0 47 8 97q33 211 186.5 361.5t360.5 150.5q205 0 301 -164h4l21 138h164l-144 -916 q-16 -98 -28.5 -151.5t-46 -128t-89.5 -134.5q-162 -170 -399 -170q-205 0 -317 121q-91 98 -92 248q1 36 6 74zM309 492q-7 -40 -6 -77q0 -102 49 -182q68 -109 215 -108q152 0 253.5 105.5t125.5 258.5q6 38 6 73q0 102 -54 176q-73 99 -220 100q-139 0 -242.5 -102.5 t-126.5 -243.5z" />
<glyph unicode="h" horiz-adv-x="1081" d="M156 0l268 1690h164l-133 -840l2 -4q131 143 299 143q184 0 237 -112q34 -71 34 -175q0 -60 -11 -131l-90 -571h-164l86 543q14 106 13 154q0 59 -38 99q-41 42 -131 42q-66 0 -116 -25t-79.5 -58.5t-52 -90t-33 -100.5t-20.5 -107l-72 -457h-163z" />
<glyph unicode="i" horiz-adv-x="536" d="M186 0l152 963h164l-152 -963h-164zM360 1325q8 47 49.5 82t88.5 35t75 -35q22 -27 23 -62q0 -10 -2 -20q-8 -49 -48 -83t-87 -34t-77 34q-23 26 -23 63q-1 9 1 20z" />
<glyph unicode="j" horiz-adv-x="536" d="M100 -541l238 1504h164l-238 -1504h-164zM360 1325q8 47 49.5 82t88.5 35t75 -35q22 -27 23 -62q0 -10 -2 -20q-8 -49 -48 -83t-87 -34t-77 34q-23 26 -23 63q-1 9 1 20z" />
<glyph unicode="k" horiz-adv-x="962" d="M147 0l269 1690h164l-172 -1084l405 357h219l-475 -410l401 -553h-217l-317 438l-49 -43l-64 -395h-164z" />
<glyph unicode="l" horiz-adv-x="464" d="M152 0l268 1690h164l-269 -1690h-163z" />
<glyph unicode="m" horiz-adv-x="1572" d="M156 0l151 963h164l-16 -105h4q109 131 254 131q86 0 149.5 -42t89.5 -118q53 78 138.5 119t177.5 41q253 0 253 -274q0 -58 -12 -129l-92 -586h-164l88 559q8 66 13 128v13q0 54 -31 94q-35 44 -113 44q-53 0 -96 -20.5t-69.5 -51.5t-47 -78t-31 -87t-18.5 -91l-80 -510 h-163l86 547q6 63 10 128v14q0 56 -29 99q-33 49 -106 50q-68 0 -119 -31t-80 -87t-44 -106.5t-26 -115.5l-78 -498h-163z" />
<glyph unicode="n" horiz-adv-x="1081" d="M156 0l151 963h164l-18 -117h4q131 143 299 143q184 0 237 -112q34 -71 34 -175q0 -60 -11 -131l-90 -571h-164l86 543q14 106 13 154q0 59 -38 99q-41 42 -131 42q-66 0 -116 -25t-79.5 -58.5t-52 -90t-33 -100.5t-20.5 -107l-72 -457h-163z" />
<glyph unicode="o" horiz-adv-x="1150" d="M145 479q35 213 206 361.5t382 148.5t335 -148q97 -116 97 -271q0 -44 -8 -91q-33 -211 -204 -358.5t-382 -147.5t-334 148q-98 117 -98 273q-1 41 6 85zM309 481q-5 -33 -5 -63q0 -109 63 -190q80 -103 229 -103t262 103.5t135 252.5q5 33 5 64q0 108 -61 189 q-79 103 -228.5 103.5t-263 -103t-136.5 -253.5z" />
<glyph unicode="p" horiz-adv-x="1181" d="M61 -541l238 1504h164l-21 -138h4q147 164 359 164q205 0 308 -150q79 -114 79 -263q0 -47 -8 -97q-33 -213 -182.5 -359.5t-360.5 -146.5t-305 162h-4l-107 -676h-164zM381 492q-7 -40 -7 -77q0 -102 50 -182q68 -109 215 -108q152 0 253 105.5t126 258.5q6 38 6 73 q0 102 -54 176q-73 99 -220 100q-139 0 -242.5 -102.5t-126.5 -243.5z" />
<glyph unicode="q" horiz-adv-x="1181" d="M150 477q33 211 184 361.5t358 150.5t305 -164h4l21 138h164l-238 -1504h-164l107 676h-4q-145 -162 -355 -162q-211 0 -313 147q-78 111 -77 259q0 47 8 98zM319 492q-7 -40 -6 -77q0 -102 49 -182q68 -109 216 -108q152 0 253 105.5t125 258.5q6 38 7 73q0 102 -55 176 q-73 99 -220 100q-139 0 -242.5 -102.5t-126.5 -243.5z" />
<glyph unicode="r" horiz-adv-x="686" d="M147 0l152 963h164l-17 -105h5q61 68 111 99.5t124 31.5q66 0 139 -45l-102 -149q-4 2 -11 9t-11.5 9t-11.5 7t-12 7t-12.5 5.5t-15.5 4.5t-16 1q-51 0 -93 -27t-65.5 -61.5t-43 -90t-28 -92.5t-16.5 -86l-76 -481h-164z" />
<glyph unicode="s" horiz-adv-x="817" d="M111 217l155 62q23 -76 59.5 -115t112.5 -39q68 0 118 41t60 106q2 12 3 24q0 44 -31 75q-39 39 -98.5 64.5t-119 55t-95.5 86.5q-27 42 -26 99q0 20 3 41q20 119 116.5 195.5t215.5 76.5q82 0 143 -50t84 -128l-149 -72q-12 41 -42 70t-73 29q-45 0 -87 -31t-48 -76 q-6 -12 -1 -25.5t5 -21.5t11 -19.5t16.5 -17.5t20.5 -15t24.5 -14.5t28 -13.5t29.5 -13t30.5 -13.5t31.5 -14.5q96 -43 147 -104q37 -45 36 -116q0 -26 -5 -56q-20 -135 -129.5 -224.5t-244.5 -89.5q-121 0 -201 64.5t-100 179.5z" />
<glyph unicode="t" horiz-adv-x="491" d="M164 0l129 811h-100l22 152h100l56 346h164l-56 -346h172l-22 -152h-172l-129 -811h-164z" />
<glyph unicode="u" horiz-adv-x="1048" d="M209 408l86 555h164l-84 -537q-11 -93 -12 -154q0 -65 44 -105q44 -42 138 -42q72 0 121 22.5t76.5 69.5t41 92t25.5 117l84 537h164l-86 -555q-70 -434 -451 -435q-322 0 -322 311q0 57 11 124z" />
<glyph unicode="v" horiz-adv-x="948" d="M154 963h186l184 -648l389 648h185l-633 -1026z" />
<glyph unicode="w" horiz-adv-x="1556" d="M158 963h186l182 -652l414 725l186 -725l390 652h186l-639 -1031l-184 717l-410 -717z" />
<glyph unicode="x" horiz-adv-x="1019" d="M2 0l492 512l-281 451h201l200 -328l304 328h204l-422 -451l318 -512h-199l-244 391l-368 -391h-205z" />
<glyph unicode="y" horiz-adv-x="1019" d="M41 -541l412 631l-306 873h191l231 -691l420 691h187l-949 -1504h-186z" />
<glyph unicode="z" horiz-adv-x="1062" d="M20 0l824 811h-565l22 152h895l-819 -811h663l-24 -152h-996z" />
<glyph unicode="{" horiz-adv-x="684" d="M182 496l21 131q102 31 142 103.5t65 223.5l59 383q18 115 92 196t127 81h150l-25 -152h-82q-51 0 -68.5 -34.5t-29.5 -120.5l-62 -387q-16 -109 -65 -195t-85 -118t-63 -46q23 -14 47.5 -46t47 -119t6.5 -195l-62 -385q-16 -70 -9 -113t58 -43h82l-24 -152h-150 q-53 0 -100 81t-31 196l62 381q29 133 9 216t-112 114z" />
<glyph unicode="|" horiz-adv-x="841" d="M477 -606v2425h137v-2425h-137z" />
<glyph unicode="}" horiz-adv-x="684" d="M25 -492l24 152h82q35 0 55.5 22.5t26.5 47t16 86.5l62 385q12 84 43 154.5t66.5 112.5t59 62.5t42.5 30.5q-14 10 -29.5 29.5t-41 67t-31 107.5t2.5 155l62 387q16 70 8 112.5t-57 42.5h-82l24 152h150q53 0 100 -81t29 -196l-59 -383q-29 -131 -10.5 -214t110.5 -113 l-21 -131q-100 -31 -140 -104t-64 -226l-62 -381q-16 -115 -90 -196t-127 -81h-149z" />
<glyph unicode="~" d="M201 410q154 301 331 301q80 0 209 -93q14 -10 45 -34.5t49.5 -38t43 -25.5t43.5 -12q41 0 89 56.5t89 142.5l129 -58q-147 -301 -332 -301q-74 0 -195 90q-12 8 -38.5 27.5t-37 28t-31 21.5t-32.5 18.5t-27.5 10.5t-29.5 5q-80 0 -174 -197z" />
<glyph unicode="&#xa2;" d="M317 778q31 193 175.5 340.5t336.5 169.5l33 217h135l-32 -213q133 -12 231 -90l-35 -217h-4q-84 135 -217 156l-111 -705q145 20 271 164h4l-35 -219q-143 -88 -264 -96l-37 -230h-135l37 232q-176 20 -279 164.5t-74 326.5zM487 791q-18 -127 36.5 -227.5t170.5 -125.5 l111 699q-119 -23 -209.5 -124t-108.5 -222z" />
<glyph unicode="&#xa3;" d="M86 59q152 197 330 199q80 92 96 191q8 59 0 100h-260l22 131h205l-28 76q-6 16 -21.5 59t-22 62.5t-16.5 57.5t-13 64.5t-3 62.5t6 71q29 186 182.5 312t341.5 126q199 0 302.5 -132t74.5 -331l-176 -45q23 147 -28.5 245.5t-192.5 98.5q-119 0 -214.5 -80t-115.5 -199 q-10 -72 7.5 -147.5t55 -165.5t50.5 -135h290l-22 -131h-246q8 -55 0 -92q-14 -102 -102 -221l10 -5q4 -2 80 -30.5t124 -43t79 -14.5q61 0 109 41t102 113l125 -84q-61 -102 -154.5 -170t-198.5 -68q-86 0 -239 60q-162 59 -217 59q-111 0 -203 -125z" />
<glyph unicode="&#xa5;" d="M143 524l21 131h485l-80 205h-372l20 131h297l-231 553h198l287 -684l500 684h198l-403 -553h297l-21 -131h-372l-146 -205h486l-21 -131h-485l-84 -524h-172l84 524h-486z" />
<glyph unicode="&#xa7;" horiz-adv-x="1212" d="M217 8h166q-18 -109 22.5 -173t147.5 -64q100 0 164.5 53t79.5 151q8 53 -3.5 93.5t-48 68t-63.5 40.5t-86 36q-12 6 -52 22.5t-60.5 26.5t-50.5 27.5t-48 36.5q-109 96 -82 270q18 115 88 203t180 131q-166 90 -135 289q25 156 154 254t289 98q84 0 160.5 -37 t111.5 -100q53 -98 31 -265h-164q27 244 -166 244q-94 0 -165 -56.5t-85 -150.5q-8 -51 4 -89t52 -65.5t71 -42t92 -36.5q27 -10 39 -15q61 -25 102.5 -48t81 -64t53 -104.5t1.5 -149.5q-35 -217 -269 -328q166 -92 134 -299q-25 -162 -148 -257t-289 -95q-356 0 -309 395z M475 598q-14 -94 41 -160.5t149.5 -66.5t171 66.5t91 160.5t-41 159.5t-149.5 65.5t-170 -65.5t-92 -159.5z" />
<glyph unicode="&#xa8;" horiz-adv-x="956" d="M377 1333q8 47 45 79t84 32t73.5 -32t18.5 -79t-45 -78.5t-82 -31.5q-47 0 -74.5 32.5t-19.5 77.5zM780 1333q8 47 46 79t83 32t73 -32t19.5 -79t-45 -78.5t-82.5 -31.5q-47 0 -74.5 32.5t-19.5 77.5z" />
<glyph unicode="&#xa9;" horiz-adv-x="1638" d="M139.5 772q53.5 334 322.5 566.5t605 232.5t533.5 -232.5t144.5 -566.5t-323.5 -566.5t-606.5 -232.5t-532.5 232.5t-143 566.5zM262 772.5q-45 -280.5 125 -478.5t446.5 -198t510 198t278.5 478.5t-126 478t-447.5 197.5t-509 -197.5t-277.5 -478zM528 778 q33 203 174.5 332t344.5 129q143 0 233 -81t94 -222h-125q-4 84 -64.5 132t-160.5 48q-156 0 -253 -100.5t-118 -233.5q-25 -145 47 -242.5t222 -97.5q205 0 280 187h125q-41 -141 -160.5 -225.5t-263.5 -84.5q-199 0 -302.5 132t-72.5 327z" />
<glyph unicode="&#xaa;" horiz-adv-x="708" d="M244 1264q20 129 115.5 218t232.5 89q133 0 199 -98h4l12 81h106l-90 -577h-106l12 80h-4q-96 -96 -231 -96q-133 0 -201.5 89t-48.5 214zM350 1272q-12 -90 33 -155.5t139 -65.5q98 0 164 63.5t80 155.5q14 90 -32 150.5t-142 60.5q-90 0 -159 -62.5t-83 -146.5z" />
<glyph unicode="&#xab;" horiz-adv-x="1024" d="M162 492l413 436l95 -86l-332 -350l223 -340l-123 -84zM510 492l414 436l94 -86l-332 -350l223 -340l-123 -84z" />
<glyph unicode="&#xac;" d="M231 604l25 160h991l-88 -553h-160l64 393h-832z" />
<glyph unicode="&#xad;" horiz-adv-x="425" d="M70 418l24 151h420l-25 -151h-419z" />
<glyph unicode="&#xae;" horiz-adv-x="1638" d="M139.5 772q53.5 334 322.5 566.5t605 232.5t533.5 -232.5t144.5 -566.5t-323.5 -566.5t-606.5 -232.5t-532.5 232.5t-143 566.5zM262 772.5q-45 -280.5 125 -478.5t446.5 -198t510 198t278.5 478.5t-126 478t-447.5 197.5t-509 -197.5t-277.5 -478zM573 340l140 874h381 q139 0 217 -51t57 -180q-37 -231 -315 -240l200 -403h-147l-199 403h-147l-64 -403h-123zM780 866h148q8 0 49 -1t58.5 0t54 4t56 11.5t44 20.5t38 33.5t17.5 50.5q6 43 -25.5 67.5t-73.5 32t-97 7.5h-234z" />
<glyph unicode="&#xaf;" horiz-adv-x="1021" d="M360 1257l23 140h700l-22 -140h-701z" />
<glyph unicode="&#xb0;" horiz-adv-x="819" d="M303 1264q18 127 122.5 217t231.5 90t204 -91t57 -216q-20 -127 -125 -217.5t-232 -90.5t-202.5 90.5t-55.5 217.5zM401 1264q-14 -88 37 -148.5t140 -60.5q86 0 156.5 60.5t84.5 148.5q14 86 -38 147.5t-140 61.5q-86 0 -157 -61.5t-83 -147.5z" />
<glyph unicode="&#xb1;" d="M135 0l25 160h991l-25 -160h-991zM221 547l27 160h416l49 313h159l-49 -313h416l-27 -160h-415l-49 -314h-160l49 314h-416z" />
<glyph unicode="&#xb4;" horiz-adv-x="733" d="M348 1188l297 336l160 -78l-365 -316z" />
<glyph unicode="&#xb5;" horiz-adv-x="1048" d="M57 -541l238 1504h164l-84 -537q-10 -84 -11.5 -150.5t43 -108.5t138.5 -42q72 0 121 22.5t76.5 69.5t41 92t25.5 117l84 537h164l-86 -555q-70 -434 -451 -435q-117 0 -203 97l-96 -611h-164z" />
<glyph unicode="&#xb6;" horiz-adv-x="1212" d="M283 1018q16 195 171.5 360.5t350.5 165.5h532l-20 -133h-119l-272 -1724h-133l272 1724h-166l-272 -1724h-133l141 893q-176 0 -273 116.5t-79 321.5z" />
<glyph unicode="&#xb7;" horiz-adv-x="630" d="M285 524q6 47 45 80t86 33t75.5 -33t22.5 -80q-8 -47 -47 -81.5t-86 -34.5t-75.5 34.5t-20.5 81.5z" />
<glyph unicode="&#xb8;" horiz-adv-x="665" d="M104 -350l244 303l144 -62l-283 -299z" />
<glyph unicode="&#xba;" horiz-adv-x="690" d="M217.5 1264q20.5 127 130 217t246.5 90t220 -90t62.5 -217t-131 -215t-248 -88t-219 88t-61 215zM323.5 1266q-14.5 -90 39 -152.5t149.5 -62.5t170 62.5t88 152.5t-39 152.5t-149.5 62.5t-170 -62.5t-88 -152.5z" />
<glyph unicode="&#xbb;" horiz-adv-x="1024" d="M164 152l330 340l-222 350l123 86l275 -436l-412 -424zM512 152l330 340l-221 350l122 86l275 -436l-412 -424z" />
<glyph unicode="&#xc0;" horiz-adv-x="1431" d="M12 0l969 1618l438 -1618h-190l-113 438h-659l-256 -438h-189zM551 598h522l-160 619zM741 1976l185 78l190 -336l-112 -57z" />
<glyph unicode="&#xc1;" horiz-adv-x="1431" d="M12 0l969 1618l438 -1618h-190l-113 438h-659l-256 -438h-189zM551 598h522l-160 619zM864 1718l297 336l160 -78l-365 -315z" />
<glyph unicode="&#xc2;" horiz-adv-x="1431" d="M12 0l969 1618l438 -1618h-190l-113 438h-659l-256 -438h-189zM551 598h522l-160 619zM676 1767l362 273l281 -273l-133 -92l-178 174l-230 -174z" />
<glyph unicode="&#xc3;" horiz-adv-x="1431" d="M12 0l969 1618l438 -1618h-190l-113 438h-659l-256 -438h-189zM551 598h522l-160 619zM645 1815q121 162 236 161q72 0 157 -47q98 -47 125 -47q61 0 129 98l84 -77q-41 -72 -106.5 -119t-136.5 -47q-55 0 -146 47q-94 45 -137 45q-39 0 -63.5 -23.5t-53.5 -70.5z" />
<glyph unicode="&#xc4;" horiz-adv-x="1431" d="M12 0l969 1618l438 -1618h-190l-113 438h-659l-256 -438h-189zM551 598h522l-160 619zM698.5 1864q8.5 45 46 77.5t82.5 32.5t73 -32.5t20 -77.5q-8 -47 -45 -79t-82 -32q-47 0 -75 33t-19.5 78zM1102 1864q8 45 45 77.5t84 32.5t73.5 -32.5t18.5 -77.5q-8 -47 -45 -79 t-82 -32q-47 0 -74.5 33t-19.5 78z" />
<glyph unicode="&#xc5;" horiz-adv-x="1431" d="M12 0l969 1618l438 -1618h-190l-113 438h-659l-256 -438h-189zM551 598h522l-160 619zM813 1862q12 82 81 140t150.5 58t131 -58t36.5 -140q-14 -84 -81.5 -142.5t-149.5 -58.5q-84 0 -133 59.5t-35 141.5zM915 1862q-6 -41 18.5 -70t63.5 -29t73 29t40 70 q6 39 -17.5 67.5t-64.5 28.5t-74 -28.5t-39 -67.5z" />
<glyph unicode="&#xc6;" horiz-adv-x="2048" d="M12 0l932 1544h678l45 -160h-625l119 -460h608l48 -160h-611l156 -604h627l43 -160h-805l-113 434h-659l-252 -434h-191zM553 594h516l-158 608z" />
<glyph unicode="&#xc7;" horiz-adv-x="1468" d="M188 766q35 217 172.5 402.5t340 294t419.5 108.5q260 0 439 -152l-35 -213q-166 205 -439 205q-256 0 -469 -190.5t-253.5 -448.5t113 -448.5t411.5 -190.5q264 0 499 205l-32 -213q-236 -152 -486 -152q-330 0 -530.5 232.5t-149.5 560.5zM506 -350l244 303l143 -62 l-283 -299z" />
<glyph unicode="&#xc8;" horiz-adv-x="1093" d="M156 0l243 1544h801l-24 -160h-629l-72 -458h610l-26 -160h-610l-97 -606h629l-25 -160h-800zM602 1976l184 78l191 -336l-113 -57z" />
<glyph unicode="&#xc9;" horiz-adv-x="1093" d="M156 0l243 1544h801l-24 -160h-629l-72 -458h610l-26 -160h-610l-97 -606h629l-25 -160h-800zM694 1718l297 336l160 -78l-365 -315z" />
<glyph unicode="&#xca;" horiz-adv-x="1093" d="M156 0l243 1544h801l-24 -160h-629l-72 -458h610l-26 -160h-610l-97 -606h629l-25 -160h-800zM506 1767l362 273l281 -273l-133 -92l-178 174l-230 -174z" />
<glyph unicode="&#xcb;" horiz-adv-x="1093" d="M156 0l243 1544h801l-24 -160h-629l-72 -458h610l-26 -160h-610l-97 -606h629l-25 -160h-800zM530.5 1864q8.5 45 46 77.5t83 32.5t73 -32.5t19.5 -77.5q-8 -47 -45 -79t-82 -32q-47 0 -75 33t-19.5 78zM934 1864q8 45 45 77.5t84 32.5t73.5 -32.5t18.5 -77.5 q-8 -47 -45 -79t-82 -32q-47 0 -74.5 33t-19.5 78z" />
<glyph unicode="&#xcc;" horiz-adv-x="489" d="M160 0l243 1544h172l-243 -1544h-172zM299 1976l184 78l191 -336l-113 -57z" />
<glyph unicode="&#xcd;" horiz-adv-x="489" d="M160 0l243 1544h172l-243 -1544h-172zM360 1718l297 336l160 -78l-364 -315z" />
<glyph unicode="&#xce;" horiz-adv-x="489" d="M160 0l243 1544h172l-243 -1544h-172zM205 1767l362 273l281 -273l-133 -92l-178 174l-230 -174z" />
<glyph unicode="&#xcf;" horiz-adv-x="489" d="M160 0l243 1544h172l-243 -1544h-172zM227.5 1864q8.5 45 46 77.5t82.5 32.5t73 -32.5t20 -77.5q-8 -47 -45 -79t-82 -32q-47 0 -75 33t-19.5 78zM631 1864q8 45 45 77.5t84 32.5t73.5 -32.5t18.5 -77.5q-8 -47 -45 -79t-82 -32q-47 0 -74.5 33t-19.5 78z" />
<glyph unicode="&#xd0;" horiz-adv-x="1388" d="M121 758l22 147h156l100 639h291q193 0 328 -39t246 -147q219 -219 163 -588q-57 -352 -344 -575q-147 -115 -293.5 -155t-347.5 -40h-286l120 758h-155zM352 160h125q158 0 279 33.5t235 125.5q219 178 264 453q43 287 -127 463q-86 88 -194.5 118.5t-261.5 30.5h-125 l-76 -479h274l-22 -147h-274z" />
<glyph unicode="&#xd1;" horiz-adv-x="1708" d="M166 0l254 1610l1005 -1262l189 1196h172l-254 -1614l-1006 1260l-188 -1190h-172zM782 1815q121 162 236 161q72 0 158 -47q98 -47 124 -47q61 0 130 98l83 -77q-41 -72 -106.5 -119t-136.5 -47q-55 0 -146 47q-94 45 -137 45q-39 0 -63.5 -23.5t-53.5 -70.5z" />
<glyph unicode="&#xd2;" horiz-adv-x="1765" d="M201 770q35 217 172 401.5t338.5 292t418.5 107.5q332 0 532 -234.5t148 -566.5q-53 -332 -326.5 -564.5t-605 -232.5t-531 232.5t-146.5 564.5zM373 772q-41 -262 113.5 -450.5t416.5 -188.5t478 188.5t257 450.5q41 264 -113.5 451.5t-418.5 187.5t-478 -187.5 t-255 -451.5zM907 1976l185 78l190 -336l-113 -57z" />
<glyph unicode="&#xd3;" horiz-adv-x="1765" d="M201 770q35 217 172 401.5t338.5 292t418.5 107.5q332 0 532 -234.5t148 -566.5q-53 -332 -326.5 -564.5t-605 -232.5t-531 232.5t-146.5 564.5zM373 772q-41 -262 113.5 -450.5t416.5 -188.5t478 188.5t257 450.5q41 264 -113.5 451.5t-418.5 187.5t-478 -187.5 t-255 -451.5zM1030 1718l297 336l160 -78l-365 -315z" />
<glyph unicode="&#xd4;" horiz-adv-x="1765" d="M201 770q35 217 172 401.5t338.5 292t418.5 107.5q332 0 532 -234.5t148 -566.5q-53 -332 -326.5 -564.5t-605 -232.5t-531 232.5t-146.5 564.5zM373 772q-41 -262 113.5 -450.5t416.5 -188.5t478 188.5t257 450.5q41 264 -113.5 451.5t-418.5 187.5t-478 -187.5 t-255 -451.5zM842 1767l362 273l281 -273l-133 -92l-178 174l-230 -174z" />
<glyph unicode="&#xd5;" horiz-adv-x="1765" d="M201 770q35 217 172 401.5t338.5 292t418.5 107.5q332 0 532 -234.5t148 -566.5q-53 -332 -326.5 -564.5t-605 -232.5t-531 232.5t-146.5 564.5zM373 772q-41 -262 113.5 -450.5t416.5 -188.5t478 188.5t257 450.5q41 264 -113.5 451.5t-418.5 187.5t-478 -187.5 t-255 -451.5zM811 1815q121 162 236 161q72 0 157 -47q98 -47 125 -47q61 0 129 98l84 -77q-41 -72 -106.5 -119t-137.5 -47q-55 0 -145 47q-94 45 -137 45q-39 0 -63.5 -23.5t-53.5 -70.5z" />
<glyph unicode="&#xd6;" horiz-adv-x="1765" d="M201 770q35 217 172 401.5t338.5 292t418.5 107.5q332 0 532 -234.5t148 -566.5q-53 -332 -326.5 -564.5t-605 -232.5t-531 232.5t-146.5 564.5zM373 772q-41 -262 113.5 -450.5t416.5 -188.5t478 188.5t257 450.5q41 264 -113.5 451.5t-418.5 187.5t-478 -187.5 t-255 -451.5zM866 1864q8 45 46 77.5t83 32.5t73 -32.5t19 -77.5q-8 -47 -44.5 -79t-81.5 -32q-47 0 -75 33t-20 78zM1270 1864q8 45 45 77.5t84 32.5t73.5 -32.5t18.5 -77.5q-8 -47 -45 -79t-82 -32q-47 0 -74.5 33t-19.5 78z" />
<glyph unicode="&#xd8;" horiz-adv-x="1765" d="M98 76l211 182q-156 223 -108 512q35 217 172 401.5t338.5 292t418.5 107.5q293 0 486 -187l217 187l80 -92l-217 -187q160 -223 114 -522q-53 -332 -326.5 -564.5t-604.5 -232.5q-297 0 -492 191l-215 -184zM373 772q-37 -219 73 -395l1037 893q-147 141 -377 141 q-264 0 -478 -187.5t-255 -451.5zM524 283q154 -150 379 -150q262 0 478 188.5t257 450.5q35 227 -77 404z" />
<glyph unicode="&#xd9;" horiz-adv-x="1402" d="M229.5 336q-14.5 117 14.5 242l151 966h172l-145 -919q-14 -86 -18.5 -125t1 -106.5t31.5 -112.5q37 -68 118 -108t169 -40q84 0 173 37t153 100q43 43 70.5 106.5t35.5 102.5t21 121q2 16 4 25l145 919h172l-151 -966q-23 -145 -64 -242.5t-139 -185.5 q-193 -176 -445 -177q-240 0 -374 158q-80 88 -94.5 205zM727 1976l184 78l191 -336l-113 -57z" />
<glyph unicode="&#xda;" horiz-adv-x="1402" d="M229.5 336q-14.5 117 14.5 242l151 966h172l-145 -919q-14 -86 -18.5 -125t1 -106.5t31.5 -112.5q37 -68 118 -108t169 -40q84 0 173 37t153 100q43 43 70.5 106.5t35.5 102.5t21 121q2 16 4 25l145 919h172l-151 -966q-23 -145 -64 -242.5t-139 -185.5 q-193 -176 -445 -177q-240 0 -374 158q-80 88 -94.5 205zM850 1718l297 336l160 -78l-365 -315z" />
<glyph unicode="&#xdb;" horiz-adv-x="1402" d="M229.5 336q-14.5 117 14.5 242l151 966h172l-145 -919q-14 -86 -18.5 -125t1 -106.5t31.5 -112.5q37 -68 118 -108t169 -40q84 0 173 37t153 100q43 43 70.5 106.5t35.5 102.5t21 121q2 16 4 25l145 919h172l-151 -966q-23 -145 -64 -242.5t-139 -185.5 q-193 -176 -445 -177q-240 0 -374 158q-80 88 -94.5 205zM662 1767l362 273l281 -273l-134 -92l-178 174l-229 -174z" />
<glyph unicode="&#xdc;" horiz-adv-x="1402" d="M229.5 336q-14.5 117 14.5 242l151 966h172l-145 -919q-14 -86 -18.5 -125t1 -106.5t31.5 -112.5q37 -68 118 -108t169 -40q84 0 173 37t153 100q43 43 70.5 106.5t35.5 102.5t21 121q2 16 4 25l145 919h172l-151 -966q-23 -145 -64 -242.5t-139 -185.5 q-193 -176 -445 -177q-240 0 -374 158q-80 88 -94.5 205zM684 1864q8 45 45 77.5t84 32.5t73.5 -32.5t18.5 -77.5q-8 -47 -45 -79t-82 -32q-47 0 -74.5 33t-19.5 78zM1087.5 1864q8.5 45 46 77.5t83 32.5t73 -32.5t19.5 -77.5q-8 -47 -45 -79t-82 -32q-47 0 -75 33t-19.5 78 z" />
<glyph unicode="&#xdd;" horiz-adv-x="1214" d="M260 1544h199l284 -688l502 688h199l-645 -880l-105 -664h-172l105 664zM797 1718l297 336l159 -78l-364 -315z" />
<glyph unicode="&#xde;" horiz-adv-x="1030" d="M156 0l243 1544h172l-45 -287h82q84 0 136.5 -4t120 -22.5t114.5 -54.5q74 -57 104.5 -151.5t14.5 -201.5q-35 -209 -201 -331q-141 -102 -383 -103h-125l-61 -389h-172zM414 549h114q354 0 398 278q14 90 -9.5 147.5t-84 83t-119 33t-148.5 7.5h-63z" />
<glyph unicode="&#xdf;" horiz-adv-x="1181" d="M147 0l129 811h-90l23 152h90l47 294q37 217 131 316q63 70 158.5 106.5t189.5 36.5q168 0 265.5 -108.5t70.5 -276.5q-16 -94 -74.5 -176t-144.5 -123q139 -51 208 -191.5t44 -301.5q-37 -236 -238.5 -399t-439.5 -167l25 152q178 10 318 128t167 292q14 86 -11.5 168 t-84.5 135q-88 76 -260 90l22 152q117 -2 203 66.5t104 182.5q14 100 -43 163t-157 63q-72 0 -135.5 -31t-96.5 -92q-39 -63 -69 -260l-187 -1182h-164z" />
<glyph unicode="&#xe0;" horiz-adv-x="1181" d="M150 479q33 213 183 361.5t361 148.5q201 0 303 -164h4l21 138h164l-152 -963h-164l21 133h-4q-150 -160 -357 -160q-205 0 -309 149.5t-71 356.5zM319 492q-25 -150 43 -258.5t216 -108.5q152 0 253 105.5t125 258.5q25 150 -47.5 249.5t-220.5 99.5 q-139 0 -242.5 -102.5t-126.5 -243.5zM532 1446l185 78l190 -336l-112 -58z" />
<glyph unicode="&#xe1;" horiz-adv-x="1181" d="M150 479q33 213 183 361.5t361 148.5q201 0 303 -164h4l21 138h164l-152 -963h-164l21 133h-4q-150 -160 -357 -160q-205 0 -309 149.5t-71 356.5zM319 492q-25 -150 43 -258.5t216 -108.5q152 0 253 105.5t125 258.5q25 150 -47.5 249.5t-220.5 99.5 q-139 0 -242.5 -102.5t-126.5 -243.5zM655 1188l297 336l160 -78l-364 -316z" />
<glyph unicode="&#xe2;" horiz-adv-x="1181" d="M150 479q33 213 183 361.5t361 148.5q201 0 303 -164h4l21 138h164l-152 -963h-164l21 133h-4q-150 -160 -357 -160q-205 0 -309 149.5t-71 356.5zM319 492q-25 -150 43 -258.5t216 -108.5q152 0 253 105.5t125 258.5q25 150 -47.5 249.5t-220.5 99.5 q-139 0 -242.5 -102.5t-126.5 -243.5zM467 1237l362 272l281 -272l-133 -92l-178 174l-230 -174z" />
<glyph unicode="&#xe3;" horiz-adv-x="1181" d="M150 479q33 213 183 361.5t361 148.5q201 0 303 -164h4l21 138h164l-152 -963h-164l21 133h-4q-150 -160 -357 -160q-205 0 -309 149.5t-71 356.5zM319 492q-25 -150 43 -258.5t216 -108.5q152 0 253 105.5t125 258.5q25 150 -47.5 249.5t-220.5 99.5 q-139 0 -242.5 -102.5t-126.5 -243.5zM436 1284q121 162 236 162q72 0 157 -47q98 -47 125 -47q61 0 129 98l84 -78q-41 -72 -106.5 -119t-136.5 -47q-55 0 -146 47q-94 45 -137 45q-39 0 -63.5 -23.5t-53.5 -70.5z" />
<glyph unicode="&#xe4;" horiz-adv-x="1181" d="M150 479q33 213 183 361.5t361 148.5q201 0 303 -164h4l21 138h164l-152 -963h-164l21 133h-4q-150 -160 -357 -160q-205 0 -309 149.5t-71 356.5zM319 492q-25 -150 43 -258.5t216 -108.5q152 0 253 105.5t125 258.5q25 150 -47.5 249.5t-220.5 99.5 q-139 0 -242.5 -102.5t-126.5 -243.5zM489 1333q8 47 46 79t83.5 32t73 -32t19 -79t-45 -78.5t-81.5 -31.5q-47 0 -75 32.5t-20 77.5zM893 1333q8 47 45 79t84 32t73.5 -32t18.5 -79t-45 -78.5t-82 -31.5q-47 0 -74.5 32.5t-19.5 77.5z" />
<glyph unicode="&#xe5;" horiz-adv-x="1181" d="M150 479q33 213 183 361.5t361 148.5q201 0 303 -164h4l21 138h164l-152 -963h-164l21 133h-4q-150 -160 -357 -160q-205 0 -309 149.5t-71 356.5zM319 492q-25 -150 43 -258.5t216 -108.5q152 0 253 105.5t125 258.5q25 150 -47.5 249.5t-220.5 99.5 q-139 0 -242.5 -102.5t-126.5 -243.5zM604 1331q12 82 81 140.5t151 58.5t131 -58.5t37 -140.5q-14 -84 -82 -142.5t-150 -58.5q-84 0 -133 59.5t-35 141.5zM707 1331q-6 -41 18.5 -69.5t63 -28.5t72.5 28.5t40 69.5q6 39 -17.5 67.5t-64.5 28.5t-73.5 -28.5t-38.5 -67.5z " />
<glyph unicode="&#xe6;" horiz-adv-x="1726" d="M104 283q25 156 158 237.5t295 81.5q154 0 260 -82q23 154 -26.5 236t-198.5 82q-113 0 -305 -62l24 156q199 57 316 57q115 0 205 -50t118 -148q70 92 182.5 145t223.5 53q223 0 320.5 -157.5t52.5 -385.5h-758q-20 -135 53.5 -228t210.5 -93q182 0 324 199l127 -80 q-186 -270 -488 -271q-111 0 -201 49.5t-137 141.5q-139 -190 -391 -191q-166 0 -278 78t-87 232zM268 287q-12 -84 55.5 -123t161.5 -39q100 0 186.5 40t100.5 130q12 84 -64.5 123t-168.5 39q-90 0 -173.5 -43t-97.5 -127zM1008 586h575q0 106 -67.5 179t-174 73 t-203.5 -74t-130 -178z" />
<glyph unicode="&#xe7;" horiz-adv-x="974" d="M135 481q33 213 208 360.5t388 147.5q162 0 281 -96l-35 -217h-4q-100 162 -273 162q-147 0 -260.5 -104.5t-136.5 -252.5q-25 -147 52 -251.5t225 -104.5q184 0 338 166h4l-33 -219q-162 -98 -322 -99q-219 0 -342 145.5t-90 362.5zM260 -350l244 303l143 -62l-282 -299 z" />
<glyph unicode="&#xe8;" horiz-adv-x="1062" d="M143 469q35 223 183.5 371.5t367.5 148.5q223 0 321.5 -158.5t49.5 -384.5h-756q-20 -135 53.5 -228t210.5 -93q182 0 324 199l127 -80q-186 -270 -487 -271q-211 0 -319 141.5t-75 354.5zM338 586h575q0 106 -67.5 179t-174 73t-203.5 -74t-130 -178zM473 1446l184 78 l191 -336l-113 -58z" />
<glyph unicode="&#xe9;" horiz-adv-x="1062" d="M143 469q35 223 183.5 371.5t367.5 148.5q223 0 321.5 -158.5t49.5 -384.5h-756q-20 -135 53.5 -228t210.5 -93q182 0 324 199l127 -80q-186 -270 -487 -271q-211 0 -319 141.5t-75 354.5zM338 586h575q0 106 -67.5 179t-174 73t-203.5 -74t-130 -178zM596 1188l297 336 l160 -78l-365 -316z" />
<glyph unicode="&#xea;" horiz-adv-x="1062" d="M143 469q35 223 183.5 371.5t367.5 148.5q223 0 321.5 -158.5t49.5 -384.5h-756q-20 -135 53.5 -228t210.5 -93q182 0 324 199l127 -80q-186 -270 -487 -271q-211 0 -319 141.5t-75 354.5zM338 586h575q0 106 -67.5 179t-174 73t-203.5 -74t-130 -178zM408 1237l362 272 l281 -272l-133 -92l-179 174l-229 -174z" />
<glyph unicode="&#xeb;" horiz-adv-x="1062" d="M143 469q35 223 183.5 371.5t367.5 148.5q223 0 321.5 -158.5t49.5 -384.5h-756q-20 -135 53.5 -228t210.5 -93q182 0 324 199l127 -80q-186 -270 -487 -271q-211 0 -319 141.5t-75 354.5zM338 586h575q0 106 -67.5 179t-174 73t-203.5 -74t-130 -178zM430 1333 q8 47 45 79t84 32t73.5 -32t18.5 -79t-45 -78.5t-82 -31.5q-47 0 -74.5 32.5t-19.5 77.5zM834 1333q8 47 46 79t83 32t72.5 -32t19.5 -79t-45 -78.5t-82 -31.5q-47 0 -74.5 32.5t-19.5 77.5z" />
<glyph unicode="&#xec;" horiz-adv-x="536" d="M186 0l152 963h164l-152 -963h-164zM240 1446l184 78l190 -336l-112 -58z" />
<glyph unicode="&#xed;" horiz-adv-x="536" d="M186 0l152 963h164l-152 -963h-164zM301 1188l297 336l160 -78l-365 -316z" />
<glyph unicode="&#xee;" horiz-adv-x="536" d="M143 1237l363 272l280 -272l-133 -92l-178 174l-229 -174zM186 0l152 963h164l-152 -963h-164z" />
<glyph unicode="&#xef;" horiz-adv-x="536" d="M168 1333q8 47 45 79t84 32t73.5 -32t18.5 -79t-45 -78.5t-82 -31.5q-47 0 -74.5 32.5t-19.5 77.5zM186 0l152 963h164l-152 -963h-164zM571 1333q8 47 46 79t83 32t73 -32t19.5 -79t-45 -78.5t-81.5 -31.5q-47 0 -75 32.5t-20 77.5z" />
<glyph unicode="&#xf0;" horiz-adv-x="1148" d="M145 481q33 201 195 352.5t375 151.5q182 0 299 -131q-47 248 -269 489l-301 -182l-67 84l295 178q-92 92 -228 185l107 94q158 -113 248 -201l313 189l68 -84l-303 -185q25 -29 35 -41t42.5 -55t51 -72.5t49 -85t48 -102.5t38 -113.5t28 -130t7.5 -141.5t-13 -156 q-29 -182 -131 -311t-221 -183.5t-240 -54.5q-211 0 -335 148.5t-91 357.5zM311 483q-25 -156 59.5 -256t227.5 -100q150 0 260.5 104.5t134.5 251.5q25 145 -54 251t-226 106q-150 0 -263.5 -102.5t-138.5 -254.5z" />
<glyph unicode="&#xf1;" horiz-adv-x="1081" d="M156 0l151 963h164l-18 -117h4q131 143 299 143q184 0 237.5 -112.5t22.5 -305.5l-90 -571h-164l86 543q10 80 13 145.5t-38 107.5t-131 42q-66 0 -116 -25t-79.5 -58.5t-52 -90t-33 -100.5t-20.5 -107l-72 -457h-163zM385 1284q121 162 236 162q72 0 157 -47 q98 -47 125 -47q61 0 129 98l84 -78q-41 -72 -106.5 -119t-137.5 -47q-55 0 -145 47q-94 45 -137 45q-39 0 -63.5 -23.5t-53.5 -70.5z" />
<glyph unicode="&#xf2;" horiz-adv-x="1150" d="M145 479q35 213 206 361.5t382 148.5t335 -148.5t89 -361.5q-33 -211 -204 -358.5t-382 -147.5t-335 147.5t-91 358.5zM309.5 481.5q-22.5 -149.5 57 -253t229 -103.5t262.5 103.5t135.5 253t-56.5 253t-228.5 103.5t-263 -103.5t-136 -253zM516 1446l184 78l191 -336 l-113 -58z" />
<glyph unicode="&#xf3;" horiz-adv-x="1150" d="M145 479q35 213 206 361.5t382 148.5t335 -148.5t89 -361.5q-33 -211 -204 -358.5t-382 -147.5t-335 147.5t-91 358.5zM309.5 481.5q-22.5 -149.5 57 -253t229 -103.5t262.5 103.5t135.5 253t-56.5 253t-228.5 103.5t-263 -103.5t-136 -253zM639 1188l297 336l160 -78 l-365 -316z" />
<glyph unicode="&#xf4;" horiz-adv-x="1150" d="M145 479q35 213 206 361.5t382 148.5t335 -148.5t89 -361.5q-33 -211 -204 -358.5t-382 -147.5t-335 147.5t-91 358.5zM309.5 481.5q-22.5 -149.5 57 -253t229 -103.5t262.5 103.5t135.5 253t-56.5 253t-228.5 103.5t-263 -103.5t-136 -253zM451 1237l362 272l281 -272 l-133 -92l-179 174l-229 -174z" />
<glyph unicode="&#xf5;" horiz-adv-x="1150" d="M145 479q35 213 206 361.5t382 148.5t335 -148.5t89 -361.5q-33 -211 -204 -358.5t-382 -147.5t-335 147.5t-91 358.5zM309.5 481.5q-22.5 -149.5 57 -253t229 -103.5t262.5 103.5t135.5 253t-56.5 253t-228.5 103.5t-263 -103.5t-136 -253zM420 1284q121 162 235 162 q72 0 158 -47q98 -47 125 -47q61 0 129 98l84 -78q-41 -72 -106.5 -119t-137.5 -47q-55 0 -145 47q-94 45 -137 45q-39 0 -63.5 -23.5t-53.5 -70.5z" />
<glyph unicode="&#xf6;" horiz-adv-x="1150" d="M145 479q35 213 206 361.5t382 148.5t335 -148.5t89 -361.5q-33 -211 -204 -358.5t-382 -147.5t-335 147.5t-91 358.5zM309.5 481.5q-22.5 -149.5 57 -253t229 -103.5t262.5 103.5t135.5 253t-56.5 253t-228.5 103.5t-263 -103.5t-136 -253zM475 1333q8 47 45 79t84 32 t74 -32t18.5 -79t-45.5 -78.5t-82 -31.5q-47 0 -74.5 32.5t-19.5 77.5zM879 1333q8 47 46 79t83 32t72.5 -32t19.5 -79t-45 -78.5t-82 -31.5q-47 0 -74.5 32.5t-19.5 77.5z" />
<glyph unicode="&#xf7;" d="M205 444l26 160h992l-27 -160h-991zM537 137q8 47 48 82t87 35t76.5 -35t21.5 -82q-8 -49 -48 -83t-87 -34t-76.5 34t-21.5 83zM657 911q8 47 49.5 82t88.5 35t75.5 -35t20.5 -82q-8 -49 -48 -82.5t-87 -33.5t-77 33.5t-22 82.5z" />
<glyph unicode="&#xf8;" horiz-adv-x="1150" d="M45 23l162 139q-90 133 -62 317q35 213 206 361.5t382 148.5q182 0 301 -112l156 135l67 -78l-157 -137q86 -135 57 -318q-33 -211 -204 -358.5t-382 -147.5q-178 0 -299 109l-159 -139zM309 481q-18 -111 27 -207l569 492q-76 72 -196 72q-150 0 -263.5 -103.5 t-136.5 -253.5zM401 193q74 -68 195 -68q150 0 262.5 103.5t134.5 252.5q18 115 -26 201z" />
<glyph unicode="&#xf9;" horiz-adv-x="1048" d="M209 408l86 555h164l-84 -537q-10 -84 -11.5 -150.5t43 -108.5t138.5 -42q72 0 121 22.5t76.5 69.5t41 92t25.5 117l84 537h164l-86 -555q-70 -434 -451 -434t-311 434zM465 1446l184 78l191 -336l-113 -58z" />
<glyph unicode="&#xfa;" horiz-adv-x="1048" d="M209 408l86 555h164l-84 -537q-10 -84 -11.5 -150.5t43 -108.5t138.5 -42q72 0 121 22.5t76.5 69.5t41 92t25.5 117l84 537h164l-86 -555q-70 -434 -451 -434t-311 434zM588 1188l297 336l159 -78l-364 -316z" />
<glyph unicode="&#xfb;" horiz-adv-x="1048" d="M209 408l86 555h164l-84 -537q-10 -84 -11.5 -150.5t43 -108.5t138.5 -42q72 0 121 22.5t76.5 69.5t41 92t25.5 117l84 537h164l-86 -555q-70 -434 -451 -434t-311 434zM399 1237l363 272l280 -272l-133 -92l-178 174l-229 -174z" />
<glyph unicode="&#xfc;" horiz-adv-x="1048" d="M209 408l86 555h164l-84 -537q-10 -84 -11.5 -150.5t43 -108.5t138.5 -42q72 0 121 22.5t76.5 69.5t41 92t25.5 117l84 537h164l-86 -555q-70 -434 -451 -434t-311 434zM424 1333q8 47 46 79t83 32t72.5 -32t19.5 -79t-45 -78.5t-82 -31.5q-47 0 -74.5 32.5t-19.5 77.5z M827 1333q8 47 45 79t84.5 32t74 -32t18 -79t-45 -78.5t-81.5 -31.5q-47 0 -75 32.5t-20 77.5z" />
<glyph unicode="&#xfd;" horiz-adv-x="1019" d="M41 -541l412 631l-306 873h191l231 -691l420 691h187l-949 -1504h-186zM614 1188l297 336l160 -78l-364 -316z" />
<glyph unicode="&#xfe;" horiz-adv-x="1181" d="M61 -541l355 2231h164l-138 -865h4q147 164 359 164q205 0 308.5 -150.5t70.5 -359.5q-33 -213 -182.5 -359.5t-360.5 -146.5t-305 162h-4l-107 -676h-164zM381 492q-25 -150 43 -258.5t215 -108.5q152 0 253 105.5t126 258.5q25 150 -48 249.5t-220 99.5 q-139 0 -242.5 -102.5t-126.5 -243.5z" />
<glyph unicode="&#xff;" horiz-adv-x="1019" d="M41 -541l412 631l-306 873h191l231 -691l420 691h187l-949 -1504h-186zM420 1333q8 47 46 79t83 32t72.5 -32t19.5 -79t-45 -78.5t-82 -31.5q-47 0 -74.5 32.5t-19.5 77.5zM823 1333q8 47 45 79t84 32t74 -32t18.5 -79t-45 -78.5t-81.5 -31.5q-47 0 -75 32.5t-20 77.5z " />
<glyph unicode="&#x131;" horiz-adv-x="536" d="M186 0l152 963h164l-152 -963h-164z" />
<glyph unicode="&#x152;" horiz-adv-x="2437" d="M201 770q35 217 172 401.5t338.5 292t418.5 107.5q182 0 330 -87t226 -243h4l47 303h807l-25 -160h-635l-72 -458h617l-27 -160h-616l-96 -606h634l-24 -160h-807l47 297h-4q-125 -154 -300 -240t-357 -84q-332 0 -531.5 232.5t-146.5 564.5zM373 772 q-41 -262 113.5 -450.5t416.5 -188.5t478 188.5t257 450.5q41 264 -113.5 451.5t-418.5 187.5t-478 -187.5t-255 -451.5z" />
<glyph unicode="&#x153;" horiz-adv-x="1925" d="M145 479q35 213 206 361.5t382 148.5q135 -4 241.5 -65.5t145.5 -167.5q74 111 188.5 170t243.5 63q223 0 323.5 -158.5t51.5 -384.5h-760q-20 -135 53.5 -228t211.5 -93q182 0 323 199l127 -80q-186 -270 -487 -271q-121 0 -222.5 62.5t-138.5 167.5 q-80 -109 -207 -169.5t-256 -60.5q-211 0 -335 147.5t-91 358.5zM313.5 481.5q-22.5 -149.5 57.5 -253t229.5 -103.5t262 103.5t135 253t-56.5 253t-228.5 103.5t-263 -103.5t-136 -253zM1202 586h576q0 106 -68 179t-174 73t-203.5 -74t-130.5 -178z" />
<glyph unicode="&#x178;" horiz-adv-x="1214" d="M260 1544h199l284 -688l502 688h199l-645 -880l-105 -664h-172l105 664zM614.5 1864q8.5 45 45 77.5t84 32.5t74 -32.5t18.5 -77.5q-8 -47 -45 -79t-82 -32q-47 0 -75 33t-19.5 78zM1018 1864q8 45 46 77.5t83 32.5t72.5 -32.5t19.5 -77.5q-8 -47 -45 -79t-82 -32 q-47 0 -74.5 33t-19.5 78z" />
<glyph unicode="&#x192;" d="M-35 -279l58 154l69 -2q59 0 106.5 12.5t84 44t60.5 58t48.5 82t36.5 86t35 98.5l217 635h-168l45 139h172l109 324q57 174 146 269t251 95q74 0 135 -26l-55 -154q-49 23 -98 23q-96 0 -144 -66q-35 -51 -82 -186l-94 -279h246l-45 -139h-248l-221 -643 q-94 -279 -170 -369q-139 -164 -391 -164z" />
<glyph unicode="&#x2c6;" horiz-adv-x="962" d="M356 1237l363 272l280 -272l-133 -92l-178 174l-229 -174z" />
<glyph unicode="&#x2da;" horiz-adv-x="716" d="M371 1331q12 82 80.5 140.5t150.5 58.5t131 -58.5t37 -140.5q-14 -84 -81.5 -142.5t-149.5 -58.5q-84 0 -133 59.5t-35 141.5zM473 1331q-6 -41 18.5 -69.5t63.5 -28.5t73 28.5t40 69.5q6 39 -17.5 67.5t-64.5 28.5t-74 -28.5t-39 -67.5z" />
<glyph unicode="&#x2dc;" horiz-adv-x="1036" d="M362 1284q121 162 236 162q72 0 158 -47q98 -47 125 -47q61 0 129 98l84 -78q-41 -72 -106.5 -119t-137.5 -47q-55 0 -145 47q-94 45 -138 45q-39 0 -63.5 -23.5t-52.5 -70.5z" />
<glyph unicode="&#x3a9;" horiz-adv-x="1638" d="M113 0l20 131h342l2 6q-117 113 -176 291t-25 397q51 322 278.5 530t518.5 208q197 0 335 -102.5t191.5 -268.5t22.5 -358q-35 -225 -154.5 -408.5t-267.5 -288.5l-2 -6h344l-20 -131h-541l14 96q162 92 292 276.5t169 432.5q25 152 -8 292t-136.5 237.5t-260.5 97.5 q-231 0 -402.5 -181.5t-214.5 -449.5q-37 -236 35 -426.5t201 -278.5l-15 -96h-542z" />
<glyph unicode="&#x3c0;" horiz-adv-x="1286" d="M137 0q88 168 183.5 469t142.5 539q-184 0 -260 -29l-10 106q109 59 331 60h901l-39 -137h-186l-108 -680q-33 -211 -17 -328h-155q-29 61 10 313l110 695h-417q-49 -240 -147.5 -552.5t-180.5 -455.5h-158z" />
<glyph unicode="&#x2000;" horiz-adv-x="1024" />
<glyph unicode="&#x2001;" horiz-adv-x="2048" />
<glyph unicode="&#x2002;" horiz-adv-x="1024" />
<glyph unicode="&#x2003;" horiz-adv-x="2048" />
<glyph unicode="&#x2004;" horiz-adv-x="681" />
<glyph unicode="&#x2005;" horiz-adv-x="512" />
<glyph unicode="&#x2006;" horiz-adv-x="339" />
<glyph unicode="&#x2007;" />
<glyph unicode="&#x2008;" horiz-adv-x="630" />
<glyph unicode="&#x2009;" horiz-adv-x="204" />
<glyph unicode="&#x200a;" horiz-adv-x="20" />
<glyph unicode="&#x200b;" horiz-adv-x="0" />
<glyph unicode="&#x200c;" horiz-adv-x="0" />
<glyph unicode="&#x200d;" horiz-adv-x="0" />
<glyph unicode="&#x200e;" horiz-adv-x="681" />
<glyph unicode="&#x200f;" horiz-adv-x="681" />
<glyph unicode="&#x2010;" horiz-adv-x="425" d="M70 418l24 151h420l-25 -151h-419z" />
<glyph unicode="&#x2011;" horiz-adv-x="425" d="M70 418v151h444v-151h-444z" />
<glyph unicode="&#x2012;" d="M70 418v151h1280v-151h-1280z" />
<glyph unicode="&#x2013;" horiz-adv-x="1024" d="M66 418l24 151h1024l-24 -151h-1024z" />
<glyph unicode="&#x2014;" horiz-adv-x="2048" d="M332 418l24 151h1516l-25 -151h-1515z" />
<glyph unicode="&#x2015;" horiz-adv-x="4096" d="M70 418v151h4114v-151h-4114z" />
<glyph unicode="&#x2016;" horiz-adv-x="1683" d="M1319 -606v2425h137v-2425h-137zM477 -606v2425h137v-2425h-137z" />
<glyph unicode="&#x2018;" horiz-adv-x="591" d="M291 1049l315 522l105 -43l-277 -535z" />
<glyph unicode="&#x2019;" horiz-adv-x="591" d="M287 1036l276 535l144 -55l-316 -523z" />
<glyph unicode="&#x201a;" horiz-adv-x="591" d="M76 -307l276 532l144 -53l-316 -524z" />
<glyph unicode="&#x201c;" horiz-adv-x="935" d="M291 1049l315 522l105 -43l-277 -535zM635 1049l315 522l105 -43l-277 -535z" />
<glyph unicode="&#x201d;" horiz-adv-x="935" d="M289 1036l276 535l144 -55l-316 -523zM633 1036l276 535l144 -55l-316 -523z" />
<glyph unicode="&#x201e;" horiz-adv-x="950" d="M76 -307l276 532l144 -53l-316 -524zM434 -307l277 532l143 -53l-315 -524z" />
<glyph unicode="&#x2020;" horiz-adv-x="1212" d="M340 1006l25 159h342l59 379h168l-60 -379h343l-25 -159h-342l-213 -1340h-168l213 1340h-342z" />
<glyph unicode="&#x2021;" horiz-adv-x="1212" d="M197 102l24 160h342l119 744h-342l25 159h342l59 379h168l-60 -379h343l-25 -159h-342l-119 -744h342l-24 -160h-342l-70 -436h-168l70 436h-342z" />
<glyph unicode="&#x2022;" horiz-adv-x="1212" d="M344 772q23 162 154 274.5t292.5 112.5t256 -112.5t69.5 -274.5q-27 -160 -158 -272.5t-290.5 -112.5t-255 112.5t-68.5 272.5z" />
<glyph unicode="&#x2024;" horiz-adv-x="630" d="M215 90q8 47 47 80t86 33t76 -33t20.5 -80t-47.5 -82t-86 -35t-75.5 35t-20.5 82z" />
<glyph unicode="&#x2025;" d="M846 90q8 47 47 80t86 33t76 -33t20.5 -80t-47.5 -82t-86 -35t-75.5 35t-20.5 82zM215 90q8 47 47 80t86 33t76 -33t20.5 -80t-47.5 -82t-86 -35t-75.5 35t-20.5 82z" />
<glyph unicode="&#x2026;" horiz-adv-x="2048" d="M244 90q8 47 47 80t86 33t75.5 -33t20.5 -80t-47 -82t-86 -35t-75.5 35t-20.5 82zM923.5 90q8.5 47 47.5 80t86 33t75.5 -33t20.5 -80t-47 -82t-86 -35t-76 35t-20.5 82zM1603.5 90q8.5 47 47.5 80t86 33t75.5 -33t20.5 -80t-47 -82t-86 -35t-76 35t-20.5 82z" />
<glyph unicode="&#x202a;" horiz-adv-x="0" />
<glyph unicode="&#x202f;" horiz-adv-x="411" />
<glyph unicode="&#x2030;" horiz-adv-x="2482" d="M264 1233q23 141 139.5 239.5t258.5 98.5q143 0 228 -98.5t62 -239.5q-20 -139 -138 -237.5t-259 -98.5t-226 97.5t-65 238.5zM332 27l1143 1544l75 -49l-1138 -1549zM395 1233q-12 -84 42.5 -144.5t140.5 -60.5t158.5 60.5t84.5 144.5q14 86 -40 146.5t-140 60.5 t-159 -60.5t-87 -146.5zM933.5 309.5q22.5 141.5 139.5 239.5t258 98q143 0 228.5 -98t62.5 -239.5t-139.5 -239t-258 -97.5t-227.5 97.5t-63.5 239zM1065 309q-14 -84 40 -144.5t140 -60.5t159 60.5t87 144.5q14 86 -40 146.5t-140 60.5t-159 -60.5t-87 -146.5z M1773.5 309.5q22.5 141.5 139.5 239.5t258 98q143 0 228 -98t62.5 -239.5t-139 -239t-258 -97.5t-227.5 97.5t-63.5 239zM1905 309q-14 -84 40 -144.5t140 -60.5t158.5 60.5t87.5 144.5q14 86 -40.5 146.5t-140.5 60.5t-158.5 -60.5t-86.5 -146.5z" />
<glyph unicode="&#x2032;" horiz-adv-x="591" d="M375 872l69 672h193l-143 -672h-119z" />
<glyph unicode="&#x2033;" horiz-adv-x="1183" d="M967 872l69 672h193l-143 -672h-119zM375 872l69 672h193l-143 -672h-119z" />
<glyph unicode="&#x2034;" horiz-adv-x="1775" d="M1559 872l69 672h193l-143 -672h-119zM967 872l69 672h193l-143 -672h-119zM375 872l69 672h193l-143 -672h-119z" />
<glyph unicode="&#x2035;" horiz-adv-x="733" d="M389 1446l184 78l191 -336l-113 -58z" />
<glyph unicode="&#x2036;" horiz-adv-x="1466" d="M1122 1446l184 78l191 -336l-113 -58zM389 1446l184 78l191 -336l-113 -58z" />
<glyph unicode="&#x2037;" horiz-adv-x="2199" d="M1855 1446l184 78l191 -336l-113 -58zM1122 1446l184 78l191 -336l-113 -58zM389 1446l184 78l191 -336l-113 -58z" />
<glyph unicode="&#x2039;" horiz-adv-x="675" d="M162 492l413 436l95 -86l-332 -350l223 -340l-123 -84z" />
<glyph unicode="&#x203a;" horiz-adv-x="675" d="M164 152l330 340l-222 350l123 86l275 -436l-412 -424z" />
<glyph unicode="&#x203c;" horiz-adv-x="1384" d="M938 90q8 47 47 80t86 33t75.5 -33t20.5 -80t-47 -82t-86 -35t-75.5 35t-20.5 82zM1003 313l195 1231h168l-195 -1231h-168zM246 90q8 47 47 80t86 33t75.5 -33t20.5 -80t-47 -82t-86 -35t-75.5 35t-20.5 82zM311 313l195 1231h168l-195 -1231h-168z" />
<glyph unicode="&#x203e;" horiz-adv-x="630" d="M-330 122l23 140h700l-22 -140h-701z" />
<glyph unicode="&#x2044;" horiz-adv-x="329" d="M-326 23l1143 1548l84 -49l-1145 -1549z" />
<glyph unicode="&#x2047;" horiz-adv-x="1998" d="M1265 651q20 127 105.5 199t226.5 115q4 2 40 12t42 12l37 12q31 10 38 15.5t31.5 18t32.5 22.5t24.5 26.5t23.5 33t15.5 38t12.5 45.5q14 94 -36 153.5t-142 59.5q-86 0 -152.5 -58.5t-79.5 -144.5q-8 -41 -4 -98h-170l8 109q25 156 151 253t282 97q158 0 246.5 -106.5 t64.5 -262.5q-29 -174 -154 -274q-74 -57 -291 -119q-166 -45 -186 -170q-10 -70 32 -117t111 -47q82 0 132.5 56.5t64.5 140.5h166q-18 -150 -130 -252.5t-259 -102.5q-143 0 -224.5 96.5t-58.5 237.5zM1394 90q8 47 47 80t86 33t76 -33t20.5 -80t-47 -82t-86 -35t-76 35 t-20.5 82zM266 651q20 127 105.5 199t226.5 115q4 2 40 12t42 12l37 12q31 10 38 15.5t31.5 18t32.5 22.5t24.5 26.5t23.5 33t15.5 38t12.5 45.5q14 94 -36 153.5t-142 59.5q-86 0 -152.5 -58.5t-79.5 -144.5q-8 -41 -4 -98h-170l8 109q25 156 151 253t282 97 q158 0 246.5 -106.5t64.5 -262.5q-29 -174 -154 -274q-74 -57 -291 -119q-166 -45 -186 -170q-10 -70 32 -117t111 -47q82 0 132.5 56.5t64.5 140.5h166q-18 -150 -130 -252.5t-259 -102.5q-143 0 -224.5 96.5t-58.5 237.5zM395 90q8 47 47 80t86 33t76 -33t20.5 -80 t-47 -82t-86 -35t-76 35t-20.5 82z" />
<glyph unicode="&#x2048;" horiz-adv-x="1691" d="M1245 90q8 47 47 80t86 33t75.5 -33t20.5 -80t-47 -82t-86 -35t-75.5 35t-20.5 82zM1310 313l195 1231h168l-195 -1231h-168zM266 651q20 127 105.5 199t226.5 115q4 2 40 12t42 12l37 12q31 10 38 15.5t31.5 18t32.5 22.5t24.5 26.5t23.5 33t15.5 38t12.5 45.5 q14 94 -36 153.5t-142 59.5q-86 0 -152.5 -58.5t-79.5 -144.5q-8 -41 -4 -98h-170l8 109q25 156 151 253t282 97q158 0 246.5 -106.5t64.5 -262.5q-29 -174 -154 -274q-74 -57 -291 -119q-166 -45 -186 -170q-10 -70 32 -117t111 -47q82 0 132.5 56.5t64.5 140.5h166 q-18 -150 -130 -252.5t-259 -102.5q-143 0 -224.5 96.5t-58.5 237.5zM395 90q8 47 47 80t86 33t76 -33t20.5 -80t-47 -82t-86 -35t-76 35t-20.5 82z" />
<glyph unicode="&#x2049;" horiz-adv-x="1691" d="M958 651q20 127 105.5 199t226.5 115q4 2 40 12t42 12l37 12q31 10 38 15.5t31.5 18t32.5 22.5t24.5 26.5t23.5 33t15.5 38t12.5 45.5q14 94 -36 153.5t-142 59.5q-86 0 -152.5 -58.5t-79.5 -144.5q-8 -41 -4 -98h-170l8 109q25 156 151 253t282 97q158 0 246.5 -106.5 t64.5 -262.5q-29 -174 -154 -274q-74 -57 -291 -119q-166 -45 -186 -170q-10 -70 32 -117t111 -47q82 0 132.5 56.5t64.5 140.5h166q-18 -150 -130 -252.5t-259 -102.5q-143 0 -224.5 96.5t-58.5 237.5zM1087 90q8 47 47 80t86 33t76 -33t20.5 -80t-47 -82t-86 -35t-76 35 t-20.5 82zM246 90q8 47 47 80t86 33t75.5 -33t20.5 -80t-47 -82t-86 -35t-75.5 35t-20.5 82zM311 313l195 1231h168l-195 -1231h-168z" />
<glyph unicode="&#x2057;" horiz-adv-x="2367" d="M2151 872l69 672h193l-143 -672h-119zM1559 872l69 672h193l-143 -672h-119zM967 872l69 672h193l-143 -672h-119zM375 872l69 672h193l-143 -672h-119z" />
<glyph unicode="&#x205f;" horiz-adv-x="514" />
<glyph unicode="&#x2060;" horiz-adv-x="0" />
<glyph unicode="&#x20a8;" horiz-adv-x="1927" d="M1221 217l155 62q23 -76 59.5 -115t112.5 -39q68 0 118 41t60 106q2 12 3 24q0 44 -31 75q-39 39 -98.5 64.5t-119 55t-95.5 86.5q-27 42 -26 99q0 20 3 41q20 119 116.5 195.5t215.5 76.5q82 0 143 -50t84 -128l-149 -72q-12 41 -42 70t-73 29q-45 0 -87 -31t-48 -76 q-6 -12 -1 -25.5t5 -21.5t11 -19.5t16.5 -17.5t20.5 -15t24.5 -14.5t28 -13.5t29.5 -13t30.5 -13.5t31.5 -14.5q96 -43 147 -104q37 -45 36 -116q0 -26 -5 -56q-20 -135 -129.5 -224.5t-244.5 -89.5q-121 0 -201 64.5t-100 179.5zM156 0l243 1544h224q119 0 210 -18.5 t167.5 -63.5t108.5 -132q19 -53 19 -120q0 -43 -8 -92q-29 -178 -150.5 -294.5t-301.5 -131.5l381 -692h-211l-361 678h-43l-106 -678h-172zM459 829h53q82 0 146.5 10.5t129 38t105.5 85t55 143.5q6 37 6 68q0 47 -13 82q-22 58 -78 85t-115.5 35t-149.5 8h-51z" />
<glyph unicode="&#x20ac;" d="M147 559l68 131h104q4 47 11 86q2 12 7 41t7 41h-149l69 131h115q80 266 244.5 423t420.5 157q119 0 211.5 -31t137.5 -74l-27 -170q-106 121 -328 121q-186 0 -310 -116.5t-177 -309.5h670l-70 -131h-641l-7 -42t-7 -40q-4 -18 -7.5 -47t-5.5 -39h580l-68 -131h-514 q-4 -209 86 -321.5t271 -112.5q207 0 362 123l-26 -172q-129 -100 -383 -101q-494 0 -480 584h-164z" />
<glyph unicode="&#x2122;" horiz-adv-x="1925" d="M299 1421l18 123h699l-19 -123h-286l-117 -739h-123l117 739h-289zM1047 682l135 862h207l149 -620l354 620h205l-135 -862h-123l117 739h-4l-412 -739h-80l-170 739h-4l-117 -739h-122z" />
<glyph unicode="&#x2202;" horiz-adv-x="1230" d="M171 307q-15 92 3 185q39 250 205 405.5t362 155.5q141 0 230.5 -75t113.5 -147h2q10 33 21 101q47 291 -49 476t-275 185q-174 0 -319 -106l-39 115q176 123 393 122q113 0 205 -51t157.5 -154.5t86 -260t-10.5 -367.5q-63 -397 -256.5 -653t-474.5 -256q-106 0 -185 45 t-117 116.5t-53 163.5zM332 494q-27 -164 36.5 -271.5t192.5 -107.5h2q156 0 287 163.5t192 395.5q-14 88 -94 169t-203 81q-141 0 -262.5 -126t-150.5 -304z" />
<glyph unicode="&#x2206;" horiz-adv-x="1464" d="M70 0l18 111l805 1470h186l334 -1468l-18 -113h-1325zM254 129h989l-199 860q-8 45 -44.5 201t-45.5 211h-8q-18 -45 -96 -189.5t-100 -187.5z" />
<glyph unicode="&#x220f;" horiz-adv-x="1820" d="M303 1393v145h1460v-145h-250v-1606h-159v1606h-641v-1606h-160v1606h-250z" />
<glyph unicode="&#x2211;" horiz-adv-x="1492" d="M295 -104l612 763l-583 766v113h1085v-139h-860v-8l545 -709l-588 -735v-6h938v-154h-1149v109z" />
<glyph unicode="&#x221a;" horiz-adv-x="1533" d="M326 729l303 119l293 -834q12 -45 39 -155h2q20 102 30 155l422 1813h123l-502 -2157h-145l-363 1024l-168 -63z" />
<glyph unicode="&#x221e;" horiz-adv-x="1896" d="M270 631q0 152 99.5 252t251.5 100q115 0 212 -70.5t205 -197.5q129 143 191 188q109 80 229 80q145 0 235.5 -96t90.5 -248v-2q0 -156 -102.5 -255t-239.5 -99q-100 0 -193.5 63.5t-218.5 204.5q-55 -63 -93 -101t-93.5 -82t-114.5 -64.5t-125 -20.5 q-137 0 -235.5 101.5t-98.5 246.5zM381 627q0 -100 67.5 -170t172.5 -70h2q35 0 70.5 13.5t60 25.5t63.5 46t52.5 47t56.5 58.5t47 49.5q-121 145 -180 190q-90 68 -187 68q-104 0 -164.5 -74.5t-60.5 -183.5zM1092 637q127 -139 200.5 -194.5t157.5 -55.5q102 0 163.5 74 t61.5 170q0 117 -64.5 185.5t-164.5 68.5h-2q-53 0 -111.5 -32t-89.5 -58.5t-88 -89t-63 -68.5z" />
<glyph unicode="&#x222b;" horiz-adv-x="1044" d="M276 -315l29 114q68 -27 105 -26q63 0 104 51q78 98 78 381q0 182 -15.5 567t-15.5 557q0 182 27.5 291t93.5 174q80 86 207 86q68 0 123 -33l-29 -110q-33 23 -82 22q-72 0 -115 -51q-78 -92 -77 -395q0 -170 15 -550t15 -560q0 -301 -96 -445q-74 -113 -219 -112 q-93 0 -148 39z" />
<glyph unicode="&#x2248;" horiz-adv-x="1425" d="M256 365q115 211 309 210q39 0 81 -11t62.5 -20t62.5 -33t48 -26q10 -6 36 -20t36 -19.5t31.5 -15.5t37 -14t36 -7t40.5 -3q66 0 114 39.5t101 125.5l68 -59q-113 -209 -291 -209q-43 0 -88 13.5t-77 28.5t-99 52q-139 76 -211 76q-74 0 -124 -43t-103 -125zM256 743 q53 100 134 156.5t177 56.5q31 0 59.5 -5t60.5 -18t46.5 -21.5t48 -28t37.5 -21.5q10 -6 43 -23.5t45 -22.5l37 -15q25 -10 45.5 -13.5t44.5 -3.5q68 0 118 41t99 127l68 -59q-111 -211 -289 -211q-45 0 -90 13.5t-77 28.5t-99 52q-129 76 -213 76q-72 0 -123 -43t-102 -123 z" />
<glyph unicode="&#x2260;" horiz-adv-x="1458" d="M299 356v105h387l152 330h-539v106h582l120 260l84 -39l-102 -221h358v-106h-401l-154 -330h555v-105h-598l-122 -268l-86 41l106 227h-342z" />
<glyph unicode="&#x2264;" horiz-adv-x="1480" d="M326 8v109h1042v-109h-1042zM340 711v112l1022 502v-125l-907 -430v-4l907 -432v-127z" />
<glyph unicode="&#x2265;" horiz-adv-x="1482" d="M328 8v109h1038v-109h-1038zM340 1200v125l1024 -504v-110l-1022 -504v127l905 430v4z" />
<glyph unicode="&#x25ca;" horiz-adv-x="1536" d="M373 768l456 872h132l452 -872l-457 -870h-131zM520 772l330 -631q35 -80 39 -110h8q18 61 41 108l326 625l-328 627q-33 86 -41 112h-6q-18 -55 -43 -112z" />
<glyph unicode="&#xe000;" horiz-adv-x="965" d="M0 965h965v-965h-965v965z" />
<glyph unicode="&#xfb01;" horiz-adv-x="1062" d="M145 0l129 811h-90l23 152h90l61 383q27 178 82 249q94 121 269 121q51 0 112 -20l-26 -166q-63 23 -107 22q-39 0 -66.5 -13t-44 -29.5t-29.5 -57.5t-18.5 -69.5t-15.5 -94.5l-53 -325h244l-23 -152h-244l-129 -811h-164zM713 0l151 963h164l-151 -963h-164zM887 1325 q8 47 49 82t88 35t75.5 -35t20.5 -82q-8 -49 -48 -83t-87 -34t-76.5 34t-21.5 83z" />
<glyph unicode="&#xfb02;" horiz-adv-x="1026" d="M145 0l129 811h-90l23 152h90l61 383q27 178 82 249q94 121 269 121q51 0 112 -20l-26 -166q-63 23 -107 22q-39 0 -66.5 -13t-44 -29.5t-29.5 -57.5t-18.5 -69.5t-15.5 -94.5l-53 -325h244l-23 -152h-244l-129 -811h-164zM713 0l268 1690h164l-268 -1690h-164z" />
</font>
</defs>
</svg>
